<svg width="32" height="32" viewBox="0 0 32 32" fill="none" xmlns="http://www.w3.org/2000/svg">
<path d="M8.15872 22.3944C7.35685 22.5119 6.03685 22.7307 5.15872 21.7344C4.2806 20.7382 3.52122 18.3326 3.18747 16.1826C2.69497 13.0138 3.18372 10.3432 4.56247 8.66318C5.37497 7.67381 6.44122 7.10068 7.64622 7.00943C8.6781 6.93006 10.22 7.33381 11.7087 9.70881C12.6412 11.1969 13.3506 13.1738 13.655 15.1319C14.0225 17.4957 14.3806 20.0182 13.1275 20.9226C12.4206 21.4332 11.9131 21.6101 10.7137 21.8957C9.72747 22.1301 8.96122 22.2763 8.15872 22.3944ZM6.73247 24.4276L13.5381 23.0238C14.1131 22.9051 14.5743 23.2213 14.7881 24.1688C15.4893 27.2788 14.4843 31.0001 11.3368 31.0001C8.35622 31.0001 6.36997 27.6026 6.0456 25.7763C5.89747 24.9482 6.10872 24.5557 6.73247 24.4276ZM21.2868 15.8963C20.0875 15.6119 19.58 15.4338 18.8731 14.9232C17.62 14.0188 17.9781 11.4963 18.3456 9.13256C18.65 7.17443 19.3593 5.19506 20.2918 3.70943C21.7793 1.33443 23.3212 0.930683 24.3543 1.01006C25.5581 1.10193 26.625 1.67381 27.4375 2.66318C28.8175 4.34318 29.3062 7.01381 28.8125 10.1826C28.4781 12.3326 27.7212 14.7301 26.8381 15.7344C25.955 16.7388 24.6425 16.5119 23.8381 16.3944C23.0337 16.2769 22.2725 16.1301 21.2868 15.8963ZM25.2675 18.4276L18.4618 17.0238C17.8868 16.9051 17.4256 17.2213 17.2118 18.1688C16.5112 21.2788 17.5162 25.0001 20.6637 25.0001C23.6443 25.0001 25.6306 21.6026 25.955 19.7763C26.1025 18.9482 25.8912 18.5557 25.2675 18.4276Z" fill="white"/>
</svg>
