<svg width="200" height="4" viewBox="0 0 200 4" fill="none" xmlns="http://www.w3.org/2000/svg">
<path d="M0 1C0 0.447715 0.447715 0 1 0H23.7191C24.2714 0 24.7191 0.447715 24.7191 1V3C24.7191 3.55228 24.2714 4 23.7191 4H0.999999C0.447714 4 0 3.55228 0 3V1Z" fill="#E3FF87"/>
<path d="M29.2135 1C29.2135 0.447715 29.6612 0 30.2135 0H52.9326C53.4849 0 53.9326 0.447715 53.9326 1V3C53.9326 3.55228 53.4849 4 52.9326 4H30.2135C29.6612 4 29.2135 3.55228 29.2135 3V1Z" fill="#C1FFA5"/>
<path d="M58.427 1C58.427 0.447715 58.8747 0 59.427 0H82.1461C82.6984 0 83.1461 0.447715 83.1461 1V3C83.1461 3.55228 82.6984 4 82.1461 4H59.427C58.8747 4 58.427 3.55228 58.427 3V1Z" fill="url(#paint0_linear_1801_44)"/>
<path d="M87.6404 1C87.6404 0.447715 88.0882 0 88.6404 0H111.36C111.912 0 112.36 0.447715 112.36 1V3C112.36 3.55228 111.912 4 111.36 4H88.6404C88.0882 4 87.6404 3.55228 87.6404 3V1Z" fill="url(#paint1_linear_1801_44)"/>
<path d="M116.854 1C116.854 0.447715 117.302 0 117.854 0H140.573C141.125 0 141.573 0.447715 141.573 1V3C141.573 3.55228 141.125 4 140.573 4H117.854C117.302 4 116.854 3.55228 116.854 3V1Z" fill="url(#paint2_linear_1801_44)"/>
<path d="M146.067 1C146.067 0.447715 146.515 0 147.067 0H169.787C170.339 0 170.787 0.447715 170.787 1V3C170.787 3.55228 170.339 4 169.787 4H147.067C146.515 4 146.067 3.55228 146.067 3V1Z" fill="url(#paint3_linear_1801_44)"/>
<path d="M175.281 1C175.281 0.447715 175.729 0 176.281 0H199C199.552 0 200 0.447715 200 1V3C200 3.55228 199.552 4 199 4H176.281C175.729 4 175.281 3.55228 175.281 3V1Z" fill="url(#paint4_linear_1801_44)"/>
<defs>
<linearGradient id="paint0_linear_1801_44" x1="58.427" y1="2" x2="83.1461" y2="2" gradientUnits="userSpaceOnUse">
<stop stop-color="#C0FFB8"/>
<stop offset="1" stop-color="#9DFFC7"/>
</linearGradient>
<linearGradient id="paint1_linear_1801_44" x1="87.6404" y1="2" x2="112.36" y2="2" gradientUnits="userSpaceOnUse">
<stop stop-color="#97FFD7"/>
<stop offset="1" stop-color="#83FFE6"/>
</linearGradient>
<linearGradient id="paint2_linear_1801_44" x1="116.854" y1="2" x2="141.573" y2="2" gradientUnits="userSpaceOnUse">
<stop stop-color="#83FFF7"/>
<stop offset="1" stop-color="#7BFFFC"/>
</linearGradient>
<linearGradient id="paint3_linear_1801_44" x1="146.067" y1="2" x2="170.787" y2="2" gradientUnits="userSpaceOnUse">
<stop stop-color="#78FFFF"/>
<stop offset="1" stop-color="#6AFEF4"/>
</linearGradient>
<linearGradient id="paint4_linear_1801_44" x1="175.281" y1="2" x2="200" y2="2" gradientUnits="userSpaceOnUse">
<stop stop-color="#63F6F4"/>
<stop offset="1" stop-color="#50D8EE"/>
</linearGradient>
</defs>
</svg>
